#!OML:ASF H:\MichaelJackson\Top Level 1\Subject 1\Session 1\male.ASF
:FULLY-SPECIFIED
:DEGREES
389
root -8.89413 16.537 -28.1925 -174.795 -12.9727 -176.323
lowerback 3.68572 -2.67929 -7.76087
upperback 2.11746 -4.16076 6.62797
thorax 1.20642 -2.41879 11.5753
lowerneck -7.4772 -3.29482 1.66738
upperneck 6.49875 -4.48485 -1.61414
head 3.33894 -2.25606 -1.05225
rclavicle -1.68967e-014 6.83819e-014
rhumerus -18.0928 -2.44133 -81.6541
rradius 15.5806
rwrist 50.3989
rhand -46.4305 -20.4985
rfingers 7.12502
rthumb -19.1598 -49.5748
lclavicle -1.68967e-014 6.83819e-014
lhumerus -82.6765 12.1009 98.8083
lradius 83.6921
lwrist 24.0267
lhand -32.6129 1.60861
lfingers 7.12502
lthumb -5.84052 31.5081
rfemur -32.6292 -0.869172 21.4508
rtibia 43.3129
rfoot -13.5032 -3.57787
rtoes 13.2532
lfemur -30.427 -2.48829 -15.6796
ltibia 66.0375
lfoot -16.3557 -3.26526
ltoes -7.86455
390
root -8.9001 16.5329 -28.1462 -174.738 -12.9139 -176.294
lowerback 3.6202 -2.68971 -7.71917
upperback 2.08951 -4.16292 6.58183
thorax 1.20729 -2.4144 11.4945
lowerneck -7.56311 -3.20736 1.62813
upperneck 6.68866 -4.36867 -1.58766
head 3.42533 -2.19857 -1.03727
rclavicle -2.90226e-014 3.33958e-014
rhumerus -18.7459 0.248203 -82.246
rradius 16.8557
rwrist 47.4728
rhand -46.1395 -20.9252
rfingers 7.12502
rthumb -18.8798 -50.0289
lclavicle -2.90226e-014 3.33958e-014
lhumerus -81.8959 11.3696 98.8341
lradius 83.913
lwrist 23.7932
lhand -33.2714 2.2374
lfingers 7.12502
lthumb -6.4762 32.1184
rfemur -33.0175 -0.573701 21.3337
rtibia 43.5601
rfoot -13.2983 -3.6283
rtoes 13.6205
lfemur -29.6691 -1.83141 -15.7908
ltibia 64.6932
lfoot -17.8745 -2.67471
ltoes -8.23992
391
root -8.91197 16.5364 -28.103 -174.585 -13.008 -176.583
lowerback 3.49659 -2.77786 -7.89871
upperback 2.03317 -4.25892 6.45129
thorax 1.24583 -2.45482 11.4477
lowerneck -7.71396 -3.11424 1.61869
upperneck 6.94998 -4.24779 -1.58523
head 3.54859 -2.13915 -1.03802
rclavicle 5.00937e-014 -1.19271e-014
rhumerus -19.6121 2.95607 -82.8893
rradius 18.4583
rwrist 44.4876
rhand -45.3581 -21.9937
rfingers 7.12502
rthumb -18.1282 -51.1689
lclavicle 5.00937e-014 -1.19271e-014
lhumerus -81.0642 10.5526 98.9421
lradius 84.103
lwrist 23.5813
lhand -34.1903 2.43875
lfingers 7.12502
lthumb -7.36328 32.2906
rfemur -33.413 -0.499863 20.8784
rtibia 43.7784
rfoot -12.9932 -3.77132
rtoes 13.3751
lfemur -28.9773 -1.40447 -16.2585
ltibia 63.3852
lfoot -19.3182 -2.22316
ltoes -8.86871
392
root -8.92658 16.5384 -28.0546 -174.387 -13.1441 -177.023
lowerback 3.38511 -2.88655 -8.16199
upperback 1.96093 -4.3778 6.26119
thorax 1.26875 -2.50262 11.3847
lowerneck -6.04993 -3.1452 2.16652
upperneck 5.40092 -4.29354 -1.80647
head 2.68135 -2.15771 -1.13242
rclavicle -5.36719e-015 -5.24792e-014
rhumerus -20.5863 5.05833 -83.4117
rradius 20.1117
rwrist 42.328
rhand -45.6587 -21.954
rfingers 7.12502
rthumb -18.4174 -51.1022
lclavicle -5.36719e-015 -5.24792e-014
lhumerus -80.1979 9.4261 99.2476
lradius 84.0007
lwrist 23.706
lhand -35.4873 2.62888
lfingers 7.12502
lthumb -8.61502 32.4331
rfemur -33.8435 -0.403501 20.2613
rtibia 43.9434
rfoot -12.4684 -4.06631
rtoes 13.1264
lfemur -28.3879 -1.16387 -16.8524
ltibia 62.1435
lfoot -20.4243 -1.96084
ltoes -9.11625
393
root -8.93413 16.5442 -28.0089 -174.329 -13.2013 -177.32
lowerback 3.35006 -2.94372 -8.40082
upperback 1.95243 -4.44177 6.11923
thorax 1.30398 -2.53102 11.3649
lowerneck -6.17906 -3.06327 2.08834
upperneck 5.55749 -4.18515 -1.72485
head 2.76401 -2.10252 -1.09486
rclavicle -5.88403e-014 -2.94201e-014
rhumerus -21.6713 7.07542 -83.9743
rradius 21.9977
rwrist 39.9574
rhand -45.2226 -22.5424
rfingers 7.12502
rthumb -17.9978 -51.7297
lclavicle -5.88403e-014 -2.94201e-014
lhumerus -79.1864 8.44515 99.3938
lradius 84.296
lwrist 23.699
lhand -36.7375 3.18049
lfingers 7.12502
lthumb -9.82135 32.9314
rfemur -34.1106 0.00915677 19.8123
rtibia 44.0531
rfoot -11.9325 -4.62571
rtoes 13.3811
lfemur -27.8275 -0.92577 -17.1913
ltibia 60.9671
lfoot -21.3429 -2.16101
ltoes -8.72921
394
root -8.94361 16.5559 -27.9702 -174.336 -13.4199 -177.727
lowerback 3.28462 -3.05887 -8.72072
upperback 1.99132 -4.58295 5.9415
thorax 1.43068 -2.60659 11.3477
lowerneck -6.18111 -2.96246 2.06443
upperneck 5.59876 -4.05163 -1.67465
head 2.7827 -2.03482 -1.07009
rclavicle 3.33958e-014 -1.19271e-014
rhumerus -22.8399 8.62515 -84.486
rradius 23.9079
rwrist 37.8804
rhand -45.5461 -22.4525
rfingers 7.12502
rthumb -18.309 -51.6109
lclavicle 3.33958e-014 -1.19271e-014
lhumerus -78.0783 7.42997 99.4842
lradius 84.5663
lwrist 23.733
lhand -37.6954 3.64611
lfingers 7.12502
lthumb -10.7455 33.3513
rfemur -34.1445 0.217408 19.2844
rtibia 44.0894
rfoot -11.6094 -5.31348
rtoes 12.2102
lfemur -27.2366 -0.883531 -17.5955
ltibia 59.8475
lfoot -21.8812 -2.749
ltoes -7.32499
395
root -8.95804 16.5704 -27.9346 -174.331 -13.8166 -178.284
lowerback 3.1055 -3.24026 -9.07106
upperback 2.092 -4.8013 5.68755
thorax 1.70359 -2.73104 11.2495
lowerneck -6.23718 -2.88544 2.01312
upperneck 5.63854 -3.95405 -1.52919
head 2.81243 -1.98192 -1.01242
rclavicle -5.76476e-014 4.29375e-014
rhumerus -24.0183 9.75927 -84.9717
rradius 25.9228
rwrist 35.8308
rhand -45.5557 -22.4268
rfingers 7.12502
rthumb -18.3183 -51.5843
lclavicle -5.76476e-014 4.29375e-014
lhumerus -76.7713 6.39803 99.4889
lradius 84.7645
lwrist 23.7158
lhand -38.4491 4.26073
lfingers 7.12502
lthumb -11.4724 33.9268
rfemur -34.0261 0.175238 18.591
rtibia 44.0213
rfoot -11.3716 -5.90417
rtoes 11.5993
lfemur -26.6689 -0.959018 -18.1893
ltibia 58.8257
lfoot -22.6649 -3.10611
ltoes -8.14988
396
root -8.96914 16.5838 -27.8866 -174.377 -14.1121 -178.332
lowerback 3.10032 -3.36215 -8.97594
upperback 2.10093 -4.95643 5.5975
thorax 1.73909 -2.80632 11.0872
lowerneck -6.28008 -2.78591 2.00778
upperneck 5.74217 -3.8262 -1.46543
head 2.85955 -1.91614 -0.988608
rclavicle 9.14409e-015 -2.62396e-014
rhumerus -25.3209 10.7749 -85.456
rradius 28.0745
rwrist 33.4229
rhand -45.2735 -22.8111
rfingers 7.12502
rthumb -18.0468 -51.9938
lclavicle 9.14409e-015 -2.62396e-014
lhumerus -75.4508 5.47306 99.4017
lradius 84.9689
lwrist 23.5647
lhand -39.0073 4.94884
lfingers 7.12502
lthumb -12.0107 34.5842
rfemur -33.9792 0.372519 18.445
rtibia 43.8304
rfoot -10.9863 -6.57597
rtoes 10.8055
lfemur -26.3649 -0.659573 -18.241
ltibia 57.9487
lfoot -22.5544 -4.05818
ltoes -5.02663
397
root -8.97749 16.6001 -27.8398 -174.498 -14.341 -178.277
lowerback 3.08239 -3.45017 -8.83439
upperback 2.16071 -5.06919 5.52969
thorax 1.82126 -2.86683 10.9205
lowerneck -6.3383 -2.71729 2.01728
upperneck 5.85398 -3.74346 -1.37347
head 2.9117 -1.87133 -0.960435
rclavicle 4.27387e-015 -4.37326e-014
rhumerus -26.5925 10.7611 -85.6737
rradius 29.8984
rwrist 33.0113
rhand -45.4324 -22.5189
rfingers 7.12502
rthumb -18.1997 -51.6874
lclavicle 4.27387e-015 -4.37326e-014
lhumerus -73.9887 4.65338 99.1968
lradius 85.0342
lwrist 23.1807
lhand -39.3321 5.94046
lfingers 7.12502
lthumb -12.3239 35.5573
rfemur -33.8579 0.600688 18.4114
rtibia 43.5423
rfoot -10.5678 -7.11773
rtoes 11.4119
lfemur -26.0771 -0.098308 -18.2202
ltibia 57.182
lfoot -22.9304 -4.88135
ltoes -4.40451
398
root -8.98993 16.6245 -27.7943 -174.517 -14.5912 -178.214
lowerback 2.89627 -3.55952 -8.59715
upperback 2.21994 -5.19356 5.43471
thorax 1.98734 -2.93366 10.6537
lowerneck -6.36273 -2.6646 1.96828
upperneck 5.9377 -3.68337 -1.17847
head 2.95025 -1.83529 -0.888293
rclavicle -4.65156e-014 3.18055e-014
rhumerus -27.7881 11.2651 -86.0927
rradius 31.6431
rwrist 31.7082
rhand -45.4561 -23.2356
rfingers 7.12502
rthumb -18.2225 -52.4021
lclavicle -4.65156e-014 3.18055e-014
lhumerus -72.397 3.74731 98.9258
lradius 85.2169
lwrist 22.6854
lhand -39.6473 7.77082
lfingers 7.12502
lthumb -12.6277 37.3691
rfemur -33.778 0.485804 18.4151
rtibia 43.1555
rfoot -10.1321 -7.3211
rtoes 11.5026
lfemur -25.9219 0.549416 -18.2676
ltibia 56.463
lfoot -22.9993 -5.54253
ltoes -3.11673
399
root -8.99977 16.646 -27.741 -174.494 -14.5928 -178.085
lowerback 2.83071 -3.58206 -8.34174
upperback 2.19714 -5.20822 5.36436
thorax 1.97138 -2.93037 10.4203
lowerneck -6.36008 -2.615 2.00474
upperneck 6.03029 -3.62921 -1.07693
head 2.98347 -1.80387 -0.86096
rclavicle -5.08889e-014 -1.43125e-014
rhumerus -29.0065 11.4288 -86.4521
rradius 33.2779
rwrist 30.8784
rhand -45.3315 -23.9125
rfingers 7.12502
rthumb -18.1026 -53.0901
lclavicle -5.08889e-014 -1.43125e-014
lhumerus -70.8061 2.9076 98.6187
lradius 85.2482
lwrist 22.2136
lhand -39.49 7.82357
lfingers 7.12502
lthumb -12.4761 37.4312
rfemur -33.8293 0.423287 18.5051
rtibia 42.7195
rfoot -9.60282 -7.34086
rtoes 11.5132
lfemur -25.8742 1.45138 -18.2892
ltibia 55.8059
lfoot -23.0669 -5.97067
ltoes -2.44945
400
root -9.0198 16.677 -27.696 -174.466 -14.6876 -178.177
lowerback 2.69777 -3.66168 -8.15492
upperback 2.17415 -5.28867 5.20834
thorax 2.00684 -2.95969 10.126
lowerneck -6.34617 -2.56937 2.01231
upperneck 6.18115 -3.58033 -0.962099
head 3.03512 -1.7754 -0.8252
rclavicle -2.27608e-014 2.38542e-015
rhumerus -30.2852 11.5468 -86.8402
rradius 34.8615
rwrist 30.0344
rhand -45.208 -24.759
rfingers 7.12502
rthumb -17.9838 -53.9475
lclavicle -2.27608e-014 2.38542e-015
lhumerus -69.2063 2.1307 98.3013
lradius 85.324
lwrist 21.3586
lhand -39.5902 8.52191
lfingers 7.12502
lthumb -12.5727 38.1236
rfemur -33.7786 -0.195719 18.3988
rtibia 42.3244
rfoot -9.05823 -6.96076
rtoes 11.5979
lfemur -25.6619 2.21336 -18.6139
ltibia 55.0674
lfoot -23.0978 -6.3026
ltoes -1.51006
401
root -9.02912 16.7044 -27.6391 -174.37 -14.5263 -177.798
lowerback 2.58498 -3.63066 -7.60754
upperback 2.08272 -5.22576 5.18187
thorax 1.90251 -2.90583 9.77323
lowerneck -6.36241 -2.53374 2.00106
upperneck 6.32581 -3.54562 -0.823114
head 3.09097 -1.75335 -0.779361
rclavicle -1.01181e-013 4.25399e-014
rhumerus -31.5287 11.5834 -87.2358
rradius 36.315
rwrist 29.1786
rhand -44.9806 -25.5766
rfingers 7.12502
rthumb -17.765 -54.7851
lclavicle -1.01181e-013 4.25399e-014
lhumerus -67.5129 1.34337 97.9136
lradius 85.5029
lwrist 20.648
lhand -39.5436 9.53339
lfingers 7.12502
lthumb -12.5278 39.1378
rfemur -34.1072 -0.518352 18.8419
rtibia 42.0076
rfoot -8.18465 -6.70743
rtoes 11.3701
lfemur -25.7351 3.13605 -18.3974
ltibia 54.3296
lfoot -23.0132 -6.67849
ltoes -0.423354
